<svg width="400" height="469" viewBox="0 0 400 469" fill="none" xmlns="http://www.w3.org/2000/svg">
<path d="M0 80C0 51.9974 0 37.9961 5.44967 27.3005C10.2433 17.8924 17.8924 10.2433 27.3005 5.44967C37.9961 0 51.9974 0 80 0H165.5C197.546 0 213.569 0 227.013 1.83271C316.031 13.9672 386.033 83.9694 398.167 172.987C400 186.431 400 202.454 400 234.5V234.5C400 266.546 400 282.569 398.167 296.013C386.033 385.031 316.031 455.033 227.013 467.167C213.569 469 197.546 469 165.5 469H80C51.9974 469 37.9961 469 27.3005 463.55C17.8924 458.757 10.2433 451.108 5.44967 441.7C0 431.004 0 417.003 0 389V80Z" fill="white"/>
<g filter="url(#filter0_d_3_3)">
<path d="M183.931 59.7375C196.113 50.5256 191.819 31 176.988 31H57.5528C39.5744 31 25 46.8731 25 66.4536V161.566C25 165.787 27.5318 169.512 31.2381 170.744C33.819 171.602 36.6187 171.125 38.8354 169.449L183.931 59.7375Z" fill="black"/>
<path d="M67.058 221.119C46.1393 214.164 25 231.207 25 255.028V403.546C25 423.127 39.5744 439 57.5528 439H82.9105C88.9892 439 94.9464 437.146 100.108 433.649L238.789 339.674C262.524 323.59 257.833 284.552 231.097 275.663L67.058 221.119Z" fill="black"/>
<path d="M173.814 426.9C168.683 430.377 170.945 439 176.988 439C204.817 439 230.683 433.754 254.587 423.263C278.491 412.771 299.363 398.394 317.202 380.131C331.783 365.185 343.73 348.367 353.041 329.677C356.068 323.602 353.009 316.199 346.94 314.18C344.049 313.219 340.917 313.666 338.35 315.405L173.814 426.9Z" fill="black"/>
<path d="M337.024 272.418C354.859 278.349 373.857 266.701 374.771 246.416C374.924 243.028 375 239.611 375 236.166C375 207.411 369.827 180.6 359.48 155.731C349.49 130.863 335.398 109.103 317.202 90.4514C304.444 77.113 290.136 65.8611 274.277 56.696C264.41 50.9938 252.512 52.5145 243.337 59.4524L131.458 144.048C109.124 160.935 114.514 198.433 140.517 207.08L337.024 272.418Z" fill="black"/>
</g>
<defs>
<filter id="filter0_d_3_3" x="21" y="31" width="358" height="416" filterUnits="userSpaceOnUse" color-interpolation-filters="sRGB">
<feFlood flood-opacity="0" result="BackgroundImageFix"/>
<feColorMatrix in="SourceAlpha" type="matrix" values="0 0 0 0 0 0 0 0 0 0 0 0 0 0 0 0 0 0 127 0" result="hardAlpha"/>
<feOffset dy="4"/>
<feGaussianBlur stdDeviation="2"/>
<feComposite in2="hardAlpha" operator="out"/>
<feColorMatrix type="matrix" values="0 0 0 0 0.285 0 0 0 0 0.285 0 0 0 0 0.285 0 0 0 0.25 0"/>
<feBlend mode="normal" in2="BackgroundImageFix" result="effect1_dropShadow_3_3"/>
<feBlend mode="normal" in="SourceGraphic" in2="effect1_dropShadow_3_3" result="shape"/>
</filter>
</defs>
</svg>
